<mxfile host="65bd71144e">
    <diagram id="wUvVfxPeSBvNjmXjEIKv" name="ページ1">
        <mxGraphModel dx="1006" dy="1114" grid="1" gridSize="10" guides="1" tooltips="1" connect="1" arrows="1" fold="1" page="1" pageScale="1" pageWidth="500" pageHeight="500" math="0" shadow="0">
            <root>
                <mxCell id="0"/>
                <mxCell id="1" parent="0"/>
                <mxCell id="2" value="" style="group" vertex="1" connectable="0" parent="1">
                    <mxGeometry x="15" y="10" width="470" height="470" as="geometry"/>
                </mxCell>
                <mxCell id="3" value="" style="rounded=1;whiteSpace=wrap;html=1;arcSize=8;strokeWidth=4;strokeColor=#b85450;fillColor=#f8cecc;" vertex="1" parent="2">
                    <mxGeometry width="470" height="469.99999999999994" as="geometry"/>
                </mxCell>
                <mxCell id="4" value="" style="ellipse;whiteSpace=wrap;html=1;aspect=fixed;strokeColor=#666666;strokeWidth=4;" vertex="1" parent="2">
                    <mxGeometry x="227.65625" y="21.36363636363636" width="14.6875" height="14.6875" as="geometry"/>
                </mxCell>
                <mxCell id="5" value="" style="rounded=0;whiteSpace=wrap;html=1;strokeColor=#6c8ebf;strokeWidth=2;fillColor=#dae8fc;" vertex="1" parent="2">
                    <mxGeometry x="29.375" y="64.09090909090908" width="411.25" height="363.18181818181813" as="geometry"/>
                </mxCell>
                <mxCell id="6" value="&lt;font face=&quot;Verdana&quot; style=&quot;&quot;&gt;&lt;font style=&quot;font-size: 190px;&quot;&gt;舟板&lt;/font&gt;&lt;br&gt;&lt;/font&gt;" style="text;html=1;align=center;verticalAlign=middle;whiteSpace=wrap;rounded=0;strokeWidth=2;" vertex="1" parent="2">
                    <mxGeometry x="27" y="184" width="410.62" height="175.91" as="geometry"/>
                </mxCell>
                <mxCell id="7" value="&lt;font style=&quot;font-size: 60px;&quot;&gt;ふないた&lt;/font&gt;" style="text;html=1;strokeColor=none;fillColor=none;align=center;verticalAlign=bottom;whiteSpace=wrap;rounded=0;fontSize=190;" vertex="1" parent="2">
                    <mxGeometry x="47.31" y="142" width="370" height="70" as="geometry"/>
                </mxCell>
            </root>
        </mxGraphModel>
    </diagram>
</mxfile>